<svg width="386" height="83" viewBox="0 0 386 83" fill="none" xmlns="http://www.w3.org/2000/svg">
<rect x="0.5" y="0.5" width="385" height="82" rx="41" fill="#1C1C1C"/>
<rect x="0.5" y="0.5" width="385" height="82" rx="41" stroke="#262626"/>
<rect x="14" y="14" width="181" height="55" rx="27.5" fill="#CAFF33"/>
<path d="M40.2142 48V35.4H42.1582V48H40.2142ZM41.0782 42.636V40.764H47.5762V42.636H41.0782ZM41.0782 37.272V35.4H48.3862V37.272H41.0782ZM54.5586 48.18C53.6346 48.18 52.8066 47.97 52.0746 47.55C51.3546 47.118 50.7846 46.536 50.3646 45.804C49.9446 45.06 49.7346 44.214 49.7346 43.266C49.7346 42.318 49.9446 41.478 50.3646 40.746C50.7846 40.002 51.3546 39.42 52.0746 39C52.8066 38.568 53.6346 38.352 54.5586 38.352C55.4706 38.352 56.2866 38.568 57.0066 39C57.7386 39.42 58.3146 40.002 58.7346 40.746C59.1546 41.478 59.3646 42.318 59.3646 43.266C59.3646 44.214 59.1546 45.06 58.7346 45.804C58.3146 46.536 57.7386 47.118 57.0066 47.55C56.2866 47.97 55.4706 48.18 54.5586 48.18ZM54.5586 46.488C55.1226 46.488 55.6266 46.35 56.0706 46.074C56.5146 45.786 56.8626 45.402 57.1146 44.922C57.3666 44.43 57.4866 43.878 57.4746 43.266C57.4866 42.642 57.3666 42.09 57.1146 41.61C56.8626 41.118 56.5146 40.734 56.0706 40.458C55.6266 40.182 55.1226 40.044 54.5586 40.044C53.9946 40.044 53.4846 40.188 53.0286 40.476C52.5846 40.752 52.2366 41.136 51.9846 41.628C51.7326 42.108 51.6126 42.654 51.6246 43.266C51.6126 43.878 51.7326 44.43 51.9846 44.922C52.2366 45.402 52.5846 45.786 53.0286 46.074C53.4846 46.35 53.9946 46.488 54.5586 46.488ZM61.3849 48V38.55H63.2569V41.52L63.0769 40.8C63.2089 40.344 63.4309 39.93 63.7429 39.558C64.0669 39.186 64.4329 38.892 64.8409 38.676C65.2609 38.46 65.6929 38.352 66.1369 38.352C66.3409 38.352 66.5329 38.37 66.7129 38.406C66.9049 38.442 67.0549 38.484 67.1629 38.532L66.6769 40.548C66.5329 40.488 66.3709 40.44 66.1909 40.404C66.0229 40.356 65.8549 40.332 65.6869 40.332C65.3629 40.332 65.0509 40.398 64.7509 40.53C64.4629 40.65 64.2049 40.824 63.9769 41.052C63.7609 41.268 63.5869 41.526 63.4549 41.826C63.3229 42.114 63.2569 42.432 63.2569 42.78V48H61.3849ZM73.6896 48V46.2H75.7236V37.2H73.6896V35.4H79.7016V37.2H77.6676V46.2H79.7016V48H73.6896ZM82.2853 48V38.55H84.1393V40.494L83.8153 40.71C83.9353 40.29 84.1693 39.906 84.5173 39.558C84.8653 39.198 85.2793 38.91 85.7593 38.694C86.2393 38.466 86.7313 38.352 87.2353 38.352C87.9553 38.352 88.5553 38.496 89.0353 38.784C89.5153 39.06 89.8753 39.486 90.1153 40.062C90.3553 40.638 90.4753 41.364 90.4753 42.24V48H88.6213V42.366C88.6213 41.826 88.5493 41.382 88.4053 41.034C88.2613 40.674 88.0393 40.416 87.7393 40.26C87.4393 40.092 87.0673 40.02 86.6233 40.044C86.2633 40.044 85.9333 40.104 85.6333 40.224C85.3333 40.332 85.0693 40.488 84.8413 40.692C84.6253 40.896 84.4513 41.136 84.3193 41.412C84.1993 41.676 84.1393 41.964 84.1393 42.276V48H83.2213C83.0653 48 82.9093 48 82.7533 48C82.5973 48 82.4413 48 82.2853 48ZM96.9323 48.18C96.0683 48.18 95.2943 47.97 94.6103 47.55C93.9383 47.118 93.4043 46.536 93.0083 45.804C92.6123 45.06 92.4143 44.214 92.4143 43.266C92.4143 42.318 92.6063 41.478 92.9903 40.746C93.3863 40.002 93.9203 39.42 94.5923 39C95.2643 38.568 96.0263 38.352 96.8783 38.352C97.3463 38.352 97.7963 38.43 98.2283 38.586C98.6723 38.73 99.0683 38.934 99.4163 39.198C99.7643 39.45 100.034 39.732 100.226 40.044C100.43 40.344 100.532 40.65 100.532 40.962L99.9923 40.998V34.68H101.846V48H99.9923V45.75H100.352C100.352 46.038 100.256 46.326 100.064 46.614C99.8723 46.89 99.6143 47.148 99.2903 47.388C98.9783 47.628 98.6123 47.82 98.1923 47.964C97.7843 48.108 97.3643 48.18 96.9323 48.18ZM97.1843 46.578C97.7483 46.578 98.2463 46.434 98.6783 46.146C99.1103 45.858 99.4463 45.468 99.6863 44.976C99.9383 44.472 100.064 43.902 100.064 43.266C100.064 42.63 99.9383 42.066 99.6863 41.574C99.4463 41.07 99.1103 40.674 98.6783 40.386C98.2463 40.098 97.7483 39.954 97.1843 39.954C96.6203 39.954 96.1223 40.098 95.6903 40.386C95.2583 40.674 94.9163 41.07 94.6643 41.574C94.4243 42.066 94.3043 42.63 94.3043 43.266C94.3043 43.902 94.4243 44.472 94.6643 44.976C94.9163 45.468 95.2583 45.858 95.6903 46.146C96.1223 46.434 96.6203 46.578 97.1843 46.578ZM104.705 48V38.55H106.559V48H104.705ZM105.605 36.462C105.209 36.462 104.903 36.36 104.687 36.156C104.471 35.952 104.363 35.664 104.363 35.292C104.363 34.944 104.471 34.662 104.687 34.446C104.915 34.23 105.221 34.122 105.605 34.122C106.001 34.122 106.307 34.224 106.523 34.428C106.739 34.632 106.847 34.92 106.847 35.292C106.847 35.64 106.733 35.922 106.505 36.138C106.289 36.354 105.989 36.462 105.605 36.462ZM112.504 48L108.508 38.55H110.506L113.386 45.624L113.044 45.786L116.122 38.55H118.03L113.836 48H112.504ZM120.033 48V38.55H121.887V48H120.033ZM120.933 36.462C120.537 36.462 120.231 36.36 120.015 36.156C119.799 35.952 119.691 35.664 119.691 35.292C119.691 34.944 119.799 34.662 120.015 34.446C120.243 34.23 120.549 34.122 120.933 34.122C121.329 34.122 121.635 34.224 121.851 34.428C122.067 34.632 122.175 34.92 122.175 35.292C122.175 35.64 122.061 35.922 121.833 36.138C121.617 36.354 121.317 36.462 120.933 36.462ZM128.678 48.18C127.814 48.18 127.04 47.97 126.356 47.55C125.684 47.118 125.15 46.536 124.754 45.804C124.358 45.06 124.16 44.214 124.16 43.266C124.16 42.318 124.352 41.478 124.736 40.746C125.132 40.002 125.666 39.42 126.338 39C127.01 38.568 127.772 38.352 128.624 38.352C129.092 38.352 129.542 38.43 129.974 38.586C130.418 38.73 130.814 38.934 131.162 39.198C131.51 39.45 131.78 39.732 131.972 40.044C132.176 40.344 132.278 40.65 132.278 40.962L131.738 40.998V34.68H133.592V48H131.738V45.75H132.098C132.098 46.038 132.002 46.326 131.81 46.614C131.618 46.89 131.36 47.148 131.036 47.388C130.724 47.628 130.358 47.82 129.938 47.964C129.53 48.108 129.11 48.18 128.678 48.18ZM128.93 46.578C129.494 46.578 129.992 46.434 130.424 46.146C130.856 45.858 131.192 45.468 131.432 44.976C131.684 44.472 131.81 43.902 131.81 43.266C131.81 42.63 131.684 42.066 131.432 41.574C131.192 41.07 130.856 40.674 130.424 40.386C129.992 40.098 129.494 39.954 128.93 39.954C128.366 39.954 127.868 40.098 127.436 40.386C127.004 40.674 126.662 41.07 126.41 41.574C126.17 42.066 126.05 42.63 126.05 43.266C126.05 43.902 126.17 44.472 126.41 44.976C126.662 45.468 127.004 45.858 127.436 46.146C127.868 46.434 128.366 46.578 128.93 46.578ZM139.738 48.18C139.066 48.18 138.478 48.024 137.974 47.712C137.482 47.4 137.098 46.962 136.822 46.398C136.558 45.834 136.426 45.162 136.426 44.382V38.55H138.28V43.878C138.28 44.43 138.364 44.91 138.532 45.318C138.712 45.714 138.964 46.02 139.288 46.236C139.624 46.452 140.026 46.56 140.494 46.56C140.842 46.56 141.16 46.506 141.448 46.398C141.736 46.278 141.982 46.116 142.186 45.912C142.402 45.708 142.57 45.462 142.69 45.174C142.81 44.886 142.87 44.574 142.87 44.238V38.55H144.724V48H142.87V46.02L143.194 45.804C143.05 46.248 142.804 46.65 142.456 47.01C142.12 47.37 141.718 47.658 141.25 47.874C140.782 48.078 140.278 48.18 139.738 48.18ZM150.96 48.18C150.18 48.18 149.466 47.964 148.818 47.532C148.182 47.1 147.672 46.512 147.288 45.768C146.904 45.024 146.712 44.184 146.712 43.248C146.712 42.3 146.904 41.46 147.288 40.728C147.684 39.984 148.212 39.402 148.872 38.982C149.544 38.562 150.294 38.352 151.122 38.352C151.614 38.352 152.064 38.424 152.472 38.568C152.88 38.712 153.234 38.916 153.534 39.18C153.846 39.432 154.098 39.726 154.29 40.062C154.494 40.398 154.62 40.758 154.668 41.142L154.254 40.998V38.55H156.126V48H154.254V45.75L154.686 45.624C154.614 45.948 154.464 46.266 154.236 46.578C154.02 46.878 153.738 47.148 153.39 47.388C153.054 47.628 152.676 47.82 152.256 47.964C151.848 48.108 151.416 48.18 150.96 48.18ZM151.446 46.47C152.01 46.47 152.508 46.332 152.94 46.056C153.372 45.78 153.708 45.402 153.948 44.922C154.2 44.43 154.326 43.872 154.326 43.248C154.326 42.636 154.2 42.09 153.948 41.61C153.708 41.13 153.372 40.752 152.94 40.476C152.508 40.2 152.01 40.062 151.446 40.062C150.894 40.062 150.402 40.2 149.97 40.476C149.55 40.752 149.214 41.13 148.962 41.61C148.722 42.09 148.602 42.636 148.602 43.248C148.602 43.872 148.722 44.43 148.962 44.922C149.214 45.402 149.55 45.78 149.97 46.056C150.402 46.332 150.894 46.47 151.446 46.47ZM158.751 48V34.68H160.605V48H158.751ZM166.383 48.18C165.591 48.18 164.877 48.042 164.241 47.766C163.605 47.49 163.077 47.082 162.657 46.542L163.917 45.462C164.277 45.882 164.667 46.188 165.087 46.38C165.519 46.56 166.005 46.65 166.545 46.65C166.761 46.65 166.959 46.626 167.139 46.578C167.331 46.518 167.493 46.434 167.625 46.326C167.769 46.218 167.877 46.092 167.949 45.948C168.021 45.792 168.057 45.624 168.057 45.444C168.057 45.132 167.943 44.88 167.715 44.688C167.595 44.604 167.403 44.514 167.139 44.418C166.887 44.31 166.557 44.202 166.149 44.094C165.453 43.914 164.883 43.71 164.439 43.482C163.995 43.254 163.653 42.996 163.413 42.708C163.233 42.48 163.101 42.234 163.017 41.97C162.933 41.694 162.891 41.394 162.891 41.07C162.891 40.674 162.975 40.314 163.143 39.99C163.323 39.654 163.563 39.366 163.863 39.126C164.175 38.874 164.535 38.682 164.943 38.55C165.363 38.418 165.807 38.352 166.275 38.352C166.719 38.352 167.157 38.412 167.589 38.532C168.033 38.652 168.441 38.826 168.813 39.054C169.185 39.282 169.497 39.552 169.749 39.864L168.687 41.034C168.459 40.806 168.207 40.608 167.931 40.44C167.667 40.26 167.397 40.122 167.121 40.026C166.845 39.93 166.593 39.882 166.365 39.882C166.113 39.882 165.885 39.906 165.681 39.954C165.477 40.002 165.303 40.074 165.159 40.17C165.027 40.266 164.925 40.386 164.853 40.53C164.781 40.674 164.745 40.836 164.745 41.016C164.757 41.172 164.793 41.322 164.853 41.466C164.925 41.598 165.021 41.712 165.141 41.808C165.273 41.904 165.471 42.006 165.735 42.114C165.999 42.222 166.335 42.324 166.743 42.42C167.343 42.576 167.835 42.75 168.219 42.942C168.615 43.122 168.927 43.332 169.155 43.572C169.395 43.8 169.563 44.064 169.659 44.364C169.755 44.664 169.803 45 169.803 45.372C169.803 45.912 169.647 46.398 169.335 46.83C169.035 47.25 168.627 47.58 168.111 47.82C167.595 48.06 167.019 48.18 166.383 48.18Z" fill="#1C1C1C"/>
<path d="M221.086 48V35.4H223.03V48H221.086ZM221.95 42.636V40.764H228.448V42.636H221.95ZM221.95 37.272V35.4H229.258V37.272H221.95ZM235.431 48.18C234.507 48.18 233.679 47.97 232.947 47.55C232.227 47.118 231.657 46.536 231.237 45.804C230.817 45.06 230.607 44.214 230.607 43.266C230.607 42.318 230.817 41.478 231.237 40.746C231.657 40.002 232.227 39.42 232.947 39C233.679 38.568 234.507 38.352 235.431 38.352C236.343 38.352 237.159 38.568 237.879 39C238.611 39.42 239.187 40.002 239.607 40.746C240.027 41.478 240.237 42.318 240.237 43.266C240.237 44.214 240.027 45.06 239.607 45.804C239.187 46.536 238.611 47.118 237.879 47.55C237.159 47.97 236.343 48.18 235.431 48.18ZM235.431 46.488C235.995 46.488 236.499 46.35 236.943 46.074C237.387 45.786 237.735 45.402 237.987 44.922C238.239 44.43 238.359 43.878 238.347 43.266C238.359 42.642 238.239 42.09 237.987 41.61C237.735 41.118 237.387 40.734 236.943 40.458C236.499 40.182 235.995 40.044 235.431 40.044C234.867 40.044 234.357 40.188 233.901 40.476C233.457 40.752 233.109 41.136 232.857 41.628C232.605 42.108 232.485 42.654 232.497 43.266C232.485 43.878 232.605 44.43 232.857 44.922C233.109 45.402 233.457 45.786 233.901 46.074C234.357 46.35 234.867 46.488 235.431 46.488ZM242.257 48V38.55H244.129V41.52L243.949 40.8C244.081 40.344 244.303 39.93 244.615 39.558C244.939 39.186 245.305 38.892 245.713 38.676C246.133 38.46 246.565 38.352 247.009 38.352C247.213 38.352 247.405 38.37 247.585 38.406C247.777 38.442 247.927 38.484 248.035 38.532L247.549 40.548C247.405 40.488 247.243 40.44 247.063 40.404C246.895 40.356 246.727 40.332 246.559 40.332C246.235 40.332 245.923 40.398 245.623 40.53C245.335 40.65 245.077 40.824 244.849 41.052C244.633 41.268 244.459 41.526 244.327 41.826C244.195 42.114 244.129 42.432 244.129 42.78V48H242.257ZM255.03 48V35.4H260.286C261.09 35.4 261.768 35.52 262.32 35.76C262.872 36 263.286 36.36 263.562 36.84C263.85 37.308 263.994 37.884 263.994 38.568C263.994 39.252 263.802 39.834 263.418 40.314C263.046 40.794 262.524 41.124 261.852 41.304V40.944C262.416 41.064 262.908 41.28 263.328 41.592C263.748 41.892 264.072 42.27 264.3 42.726C264.54 43.182 264.66 43.704 264.66 44.292C264.66 44.892 264.564 45.426 264.372 45.894C264.192 46.35 263.916 46.734 263.544 47.046C263.184 47.358 262.746 47.598 262.23 47.766C261.714 47.922 261.126 48 260.466 48H255.03ZM256.974 46.128H260.358C260.85 46.128 261.264 46.056 261.6 45.912C261.948 45.768 262.212 45.558 262.392 45.282C262.584 44.994 262.68 44.652 262.68 44.256C262.68 43.884 262.578 43.566 262.374 43.302C262.182 43.038 261.906 42.84 261.546 42.708C261.186 42.564 260.76 42.492 260.268 42.492H256.974V46.128ZM256.974 40.62H260.178C260.538 40.62 260.856 40.548 261.132 40.404C261.42 40.26 261.642 40.062 261.798 39.81C261.966 39.558 262.05 39.27 262.05 38.946C262.05 38.406 261.87 37.992 261.51 37.704C261.15 37.416 260.634 37.272 259.962 37.272H256.974V40.62ZM270.126 48.18C269.454 48.18 268.866 48.024 268.362 47.712C267.87 47.4 267.486 46.962 267.21 46.398C266.946 45.834 266.814 45.162 266.814 44.382V38.55H268.668V43.878C268.668 44.43 268.752 44.91 268.92 45.318C269.1 45.714 269.352 46.02 269.676 46.236C270.012 46.452 270.414 46.56 270.882 46.56C271.23 46.56 271.548 46.506 271.836 46.398C272.124 46.278 272.37 46.116 272.574 45.912C272.79 45.708 272.958 45.462 273.078 45.174C273.198 44.886 273.258 44.574 273.258 44.238V38.55H275.112V48H273.258V46.02L273.582 45.804C273.438 46.248 273.192 46.65 272.844 47.01C272.508 47.37 272.106 47.658 271.638 47.874C271.17 48.078 270.666 48.18 270.126 48.18ZM280.862 48.18C280.07 48.18 279.356 48.042 278.72 47.766C278.084 47.49 277.556 47.082 277.136 46.542L278.396 45.462C278.756 45.882 279.146 46.188 279.566 46.38C279.998 46.56 280.484 46.65 281.024 46.65C281.24 46.65 281.438 46.626 281.618 46.578C281.81 46.518 281.972 46.434 282.104 46.326C282.248 46.218 282.356 46.092 282.428 45.948C282.5 45.792 282.536 45.624 282.536 45.444C282.536 45.132 282.422 44.88 282.194 44.688C282.074 44.604 281.882 44.514 281.618 44.418C281.366 44.31 281.036 44.202 280.628 44.094C279.932 43.914 279.362 43.71 278.918 43.482C278.474 43.254 278.132 42.996 277.892 42.708C277.712 42.48 277.58 42.234 277.496 41.97C277.412 41.694 277.37 41.394 277.37 41.07C277.37 40.674 277.454 40.314 277.622 39.99C277.802 39.654 278.042 39.366 278.342 39.126C278.654 38.874 279.014 38.682 279.422 38.55C279.842 38.418 280.286 38.352 280.754 38.352C281.198 38.352 281.636 38.412 282.068 38.532C282.512 38.652 282.92 38.826 283.292 39.054C283.664 39.282 283.976 39.552 284.228 39.864L283.166 41.034C282.938 40.806 282.686 40.608 282.41 40.44C282.146 40.26 281.876 40.122 281.6 40.026C281.324 39.93 281.072 39.882 280.844 39.882C280.592 39.882 280.364 39.906 280.16 39.954C279.956 40.002 279.782 40.074 279.638 40.17C279.506 40.266 279.404 40.386 279.332 40.53C279.26 40.674 279.224 40.836 279.224 41.016C279.236 41.172 279.272 41.322 279.332 41.466C279.404 41.598 279.5 41.712 279.62 41.808C279.752 41.904 279.95 42.006 280.214 42.114C280.478 42.222 280.814 42.324 281.222 42.42C281.822 42.576 282.314 42.75 282.698 42.942C283.094 43.122 283.406 43.332 283.634 43.572C283.874 43.8 284.042 44.064 284.138 44.364C284.234 44.664 284.282 45 284.282 45.372C284.282 45.912 284.126 46.398 283.814 46.83C283.514 47.25 283.106 47.58 282.59 47.82C282.074 48.06 281.498 48.18 280.862 48.18ZM286.631 48V38.55H288.485V48H286.631ZM287.531 36.462C287.135 36.462 286.829 36.36 286.613 36.156C286.397 35.952 286.289 35.664 286.289 35.292C286.289 34.944 286.397 34.662 286.613 34.446C286.841 34.23 287.147 34.122 287.531 34.122C287.927 34.122 288.233 34.224 288.449 34.428C288.665 34.632 288.773 34.92 288.773 35.292C288.773 35.64 288.659 35.922 288.431 36.138C288.215 36.354 287.915 36.462 287.531 36.462ZM291.335 48V38.55H293.189V40.494L292.865 40.71C292.985 40.29 293.219 39.906 293.567 39.558C293.915 39.198 294.329 38.91 294.809 38.694C295.289 38.466 295.781 38.352 296.285 38.352C297.005 38.352 297.605 38.496 298.085 38.784C298.565 39.06 298.925 39.486 299.165 40.062C299.405 40.638 299.525 41.364 299.525 42.24V48H297.671V42.366C297.671 41.826 297.599 41.382 297.455 41.034C297.311 40.674 297.089 40.416 296.789 40.26C296.489 40.092 296.117 40.02 295.673 40.044C295.313 40.044 294.983 40.104 294.683 40.224C294.383 40.332 294.119 40.488 293.891 40.692C293.675 40.896 293.501 41.136 293.369 41.412C293.249 41.676 293.189 41.964 293.189 42.276V48H292.271C292.115 48 291.959 48 291.803 48C291.647 48 291.491 48 291.335 48ZM306.45 48.18C305.478 48.18 304.614 47.976 303.858 47.568C303.114 47.148 302.526 46.578 302.094 45.858C301.674 45.138 301.464 44.31 301.464 43.374C301.464 42.63 301.584 41.952 301.824 41.34C302.064 40.728 302.394 40.2 302.814 39.756C303.246 39.3 303.756 38.952 304.344 38.712C304.944 38.46 305.592 38.334 306.288 38.334C306.9 38.334 307.47 38.454 307.998 38.694C308.526 38.922 308.982 39.24 309.366 39.648C309.762 40.056 310.062 40.542 310.266 41.106C310.482 41.658 310.584 42.264 310.572 42.924L310.554 43.716H302.832L302.418 42.24H308.952L308.682 42.546V42.114C308.646 41.718 308.514 41.364 308.286 41.052C308.058 40.74 307.77 40.494 307.422 40.314C307.074 40.134 306.696 40.044 306.288 40.044C305.64 40.044 305.094 40.17 304.65 40.422C304.206 40.662 303.87 41.022 303.642 41.502C303.414 41.97 303.3 42.552 303.3 43.248C303.3 43.908 303.438 44.484 303.714 44.976C303.99 45.456 304.38 45.828 304.884 46.092C305.388 46.356 305.97 46.488 306.63 46.488C307.098 46.488 307.53 46.41 307.926 46.254C308.334 46.098 308.772 45.816 309.24 45.408L310.176 46.722C309.888 47.01 309.534 47.262 309.114 47.478C308.706 47.694 308.268 47.868 307.8 48C307.344 48.12 306.894 48.18 306.45 48.18ZM315.737 48.18C314.945 48.18 314.231 48.042 313.595 47.766C312.959 47.49 312.431 47.082 312.011 46.542L313.271 45.462C313.631 45.882 314.021 46.188 314.441 46.38C314.873 46.56 315.359 46.65 315.899 46.65C316.115 46.65 316.313 46.626 316.493 46.578C316.685 46.518 316.847 46.434 316.979 46.326C317.123 46.218 317.231 46.092 317.303 45.948C317.375 45.792 317.411 45.624 317.411 45.444C317.411 45.132 317.297 44.88 317.069 44.688C316.949 44.604 316.757 44.514 316.493 44.418C316.241 44.31 315.911 44.202 315.503 44.094C314.807 43.914 314.237 43.71 313.793 43.482C313.349 43.254 313.007 42.996 312.767 42.708C312.587 42.48 312.455 42.234 312.371 41.97C312.287 41.694 312.245 41.394 312.245 41.07C312.245 40.674 312.329 40.314 312.497 39.99C312.677 39.654 312.917 39.366 313.217 39.126C313.529 38.874 313.889 38.682 314.297 38.55C314.717 38.418 315.161 38.352 315.629 38.352C316.073 38.352 316.511 38.412 316.943 38.532C317.387 38.652 317.795 38.826 318.167 39.054C318.539 39.282 318.851 39.552 319.103 39.864L318.041 41.034C317.813 40.806 317.561 40.608 317.285 40.44C317.021 40.26 316.751 40.122 316.475 40.026C316.199 39.93 315.947 39.882 315.719 39.882C315.467 39.882 315.239 39.906 315.035 39.954C314.831 40.002 314.657 40.074 314.513 40.17C314.381 40.266 314.279 40.386 314.207 40.53C314.135 40.674 314.099 40.836 314.099 41.016C314.111 41.172 314.147 41.322 314.207 41.466C314.279 41.598 314.375 41.712 314.495 41.808C314.627 41.904 314.825 42.006 315.089 42.114C315.353 42.222 315.689 42.324 316.097 42.42C316.697 42.576 317.189 42.75 317.573 42.942C317.969 43.122 318.281 43.332 318.509 43.572C318.749 43.8 318.917 44.064 319.013 44.364C319.109 44.664 319.157 45 319.157 45.372C319.157 45.912 319.001 46.398 318.689 46.83C318.389 47.25 317.981 47.58 317.465 47.82C316.949 48.06 316.373 48.18 315.737 48.18ZM324.35 48.18C323.558 48.18 322.844 48.042 322.208 47.766C321.572 47.49 321.044 47.082 320.624 46.542L321.884 45.462C322.244 45.882 322.634 46.188 323.054 46.38C323.486 46.56 323.972 46.65 324.512 46.65C324.728 46.65 324.926 46.626 325.106 46.578C325.298 46.518 325.46 46.434 325.592 46.326C325.736 46.218 325.844 46.092 325.916 45.948C325.988 45.792 326.024 45.624 326.024 45.444C326.024 45.132 325.91 44.88 325.682 44.688C325.562 44.604 325.37 44.514 325.106 44.418C324.854 44.31 324.524 44.202 324.116 44.094C323.42 43.914 322.85 43.71 322.406 43.482C321.962 43.254 321.62 42.996 321.38 42.708C321.2 42.48 321.068 42.234 320.984 41.97C320.9 41.694 320.858 41.394 320.858 41.07C320.858 40.674 320.942 40.314 321.11 39.99C321.29 39.654 321.53 39.366 321.83 39.126C322.142 38.874 322.502 38.682 322.91 38.55C323.33 38.418 323.774 38.352 324.242 38.352C324.686 38.352 325.124 38.412 325.556 38.532C326 38.652 326.408 38.826 326.78 39.054C327.152 39.282 327.464 39.552 327.716 39.864L326.654 41.034C326.426 40.806 326.174 40.608 325.898 40.44C325.634 40.26 325.364 40.122 325.088 40.026C324.812 39.93 324.56 39.882 324.332 39.882C324.08 39.882 323.852 39.906 323.648 39.954C323.444 40.002 323.27 40.074 323.126 40.17C322.994 40.266 322.892 40.386 322.82 40.53C322.748 40.674 322.712 40.836 322.712 41.016C322.724 41.172 322.76 41.322 322.82 41.466C322.892 41.598 322.988 41.712 323.108 41.808C323.24 41.904 323.438 42.006 323.702 42.114C323.966 42.222 324.302 42.324 324.71 42.42C325.31 42.576 325.802 42.75 326.186 42.942C326.582 43.122 326.894 43.332 327.122 43.572C327.362 43.8 327.53 44.064 327.626 44.364C327.722 44.664 327.77 45 327.77 45.372C327.77 45.912 327.614 46.398 327.302 46.83C327.002 47.25 326.594 47.58 326.078 47.82C325.562 48.06 324.986 48.18 324.35 48.18ZM334.224 48.18C333.252 48.18 332.388 47.976 331.632 47.568C330.888 47.148 330.3 46.578 329.868 45.858C329.448 45.138 329.238 44.31 329.238 43.374C329.238 42.63 329.358 41.952 329.598 41.34C329.838 40.728 330.168 40.2 330.588 39.756C331.02 39.3 331.53 38.952 332.118 38.712C332.718 38.46 333.366 38.334 334.062 38.334C334.674 38.334 335.244 38.454 335.772 38.694C336.3 38.922 336.756 39.24 337.14 39.648C337.536 40.056 337.836 40.542 338.04 41.106C338.256 41.658 338.358 42.264 338.346 42.924L338.328 43.716H330.606L330.192 42.24H336.726L336.456 42.546V42.114C336.42 41.718 336.288 41.364 336.06 41.052C335.832 40.74 335.544 40.494 335.196 40.314C334.848 40.134 334.47 40.044 334.062 40.044C333.414 40.044 332.868 40.17 332.424 40.422C331.98 40.662 331.644 41.022 331.416 41.502C331.188 41.97 331.074 42.552 331.074 43.248C331.074 43.908 331.212 44.484 331.488 44.976C331.764 45.456 332.154 45.828 332.658 46.092C333.162 46.356 333.744 46.488 334.404 46.488C334.872 46.488 335.304 46.41 335.7 46.254C336.108 46.098 336.546 45.816 337.014 45.408L337.95 46.722C337.662 47.01 337.308 47.262 336.888 47.478C336.48 47.694 336.042 47.868 335.574 48C335.118 48.12 334.668 48.18 334.224 48.18ZM343.51 48.18C342.718 48.18 342.004 48.042 341.368 47.766C340.732 47.49 340.204 47.082 339.784 46.542L341.044 45.462C341.404 45.882 341.794 46.188 342.214 46.38C342.646 46.56 343.132 46.65 343.672 46.65C343.888 46.65 344.086 46.626 344.266 46.578C344.458 46.518 344.62 46.434 344.752 46.326C344.896 46.218 345.004 46.092 345.076 45.948C345.148 45.792 345.184 45.624 345.184 45.444C345.184 45.132 345.07 44.88 344.842 44.688C344.722 44.604 344.53 44.514 344.266 44.418C344.014 44.31 343.684 44.202 343.276 44.094C342.58 43.914 342.01 43.71 341.566 43.482C341.122 43.254 340.78 42.996 340.54 42.708C340.36 42.48 340.228 42.234 340.144 41.97C340.06 41.694 340.018 41.394 340.018 41.07C340.018 40.674 340.102 40.314 340.27 39.99C340.45 39.654 340.69 39.366 340.99 39.126C341.302 38.874 341.662 38.682 342.07 38.55C342.49 38.418 342.934 38.352 343.402 38.352C343.846 38.352 344.284 38.412 344.716 38.532C345.16 38.652 345.568 38.826 345.94 39.054C346.312 39.282 346.624 39.552 346.876 39.864L345.814 41.034C345.586 40.806 345.334 40.608 345.058 40.44C344.794 40.26 344.524 40.122 344.248 40.026C343.972 39.93 343.72 39.882 343.492 39.882C343.24 39.882 343.012 39.906 342.808 39.954C342.604 40.002 342.43 40.074 342.286 40.17C342.154 40.266 342.052 40.386 341.98 40.53C341.908 40.674 341.872 40.836 341.872 41.016C341.884 41.172 341.92 41.322 341.98 41.466C342.052 41.598 342.148 41.712 342.268 41.808C342.4 41.904 342.598 42.006 342.862 42.114C343.126 42.222 343.462 42.324 343.87 42.42C344.47 42.576 344.962 42.75 345.346 42.942C345.742 43.122 346.054 43.332 346.282 43.572C346.522 43.8 346.69 44.064 346.786 44.364C346.882 44.664 346.93 45 346.93 45.372C346.93 45.912 346.774 46.398 346.462 46.83C346.162 47.25 345.754 47.58 345.238 47.82C344.722 48.06 344.146 48.18 343.51 48.18Z" fill="white"/>
</svg>
